<?xml version="1.0" encoding="UTF-8"?>
<svg width="864px" height="1224px" viewBox="0 0 864 1224" version="1.1" xmlns="http://www.w3.org/2000/svg" xmlns:xlink="http://www.w3.org/1999/xlink">
    <!-- Generator: Sketch 46.2 (44496) - http://www.bohemiancoding.com/sketch -->
    <title>Artboard 2</title>
    <desc>Created with Sketch.</desc>
    <defs></defs>
    <g id="Page-1" stroke="none" stroke-width="1" fill="none" fill-rule="evenodd">
        <g id="Artboard-2">
            <rect id="Rectangle-Copy-23" fill="#A9C8ED" x="50" y="280" width="160" height="60" rx="3"></rect>
            <rect id="Rectangle-Copy-28" fill="#A9C8ED" x="50.0146484" y="97" width="160" height="60" rx="3"></rect>
            <rect id="Rectangle-Copy-30" fill="#A9C8ED" x="250.014648" y="97" width="160" height="60" rx="3"></rect>
            <rect id="Rectangle-Copy-24" fill="#EDB6A9" x="50" y="380" width="160" height="60" rx="3"></rect>
            <rect id="Rectangle-Copy-42" fill="#EDB6A9" x="50" y="780" width="160" height="60" rx="3"></rect>
            <rect id="Rectangle-Copy-26" fill="#EDB6A9" x="50" y="480" width="160" height="60" rx="3"></rect>
            <rect id="Rectangle-Copy-43" fill="#EDB6A9" x="50" y="880" width="160" height="60" rx="3"></rect>
            <rect id="Rectangle-Copy-36" fill="#EDB6A9" x="250" y="480" width="160" height="60" rx="3"></rect>
            <rect id="Rectangle-Copy-32" fill="#EDB6A9" x="50" y="580" width="160" height="60" rx="3"></rect>
            <rect id="Rectangle-Copy-44" fill="#EDB6A9" x="50" y="980" width="160" height="60" rx="3"></rect>
            <rect id="Rectangle-Copy-37" fill="#EDB6A9" x="250" y="580" width="160" height="60" rx="3"></rect>
            <rect id="Rectangle-Copy-34" fill="#A9C8ED" x="50" y="680" width="160" height="60" rx="3"></rect>
            <rect id="Rectangle-Copy-45" fill="#A9C8ED" x="50" y="1080" width="160" height="60" rx="3"></rect>
            <rect id="Rectangle-Copy-40" fill="#EDDAA9" x="249" y="780" width="160" height="60" rx="3"></rect>
            <path d="M50,330 L210,330 L210,337 L210,337 C210,338.656854 208.656854,340 207,340 L53,340 L53,340 C51.3431458,340 50,338.656854 50,337 L50,330 Z" id="Rectangle-Copy-23" fill="#A9C8ED"></path>
            <path d="M50.0146484,147 L210.014648,147 L210.014648,154 L210.014648,154 C210.014648,155.656854 208.671503,157 207.014648,157 L53.0146484,157 L53.0146484,157 C51.3577942,157 50.0146484,155.656854 50.0146484,154 L50.0146484,147 Z" id="Rectangle-Copy-29" fill="#A9C8ED"></path>
            <path d="M250.014648,147 L410.014648,147 L410.014648,154 L410.014648,154 C410.014648,155.656854 408.671503,157 407.014648,157 L253.014648,157 L253.014648,157 C251.357794,157 250.014648,155.656854 250.014648,154 L250.014648,147 Z" id="Rectangle-Copy-31" fill="#A9C8ED"></path>
            <path d="M50,430 L210,430 L210,437 L210,437 C210,438.656854 208.656854,440 207,440 L53,440 L53,440 C51.3431458,440 50,438.656854 50,437 L50,430 Z" id="Rectangle-Copy-25" fill="#A9C8ED"></path>
            <path d="M50,830 L210,830 L210,837 L210,837 C210,838.656854 208.656854,840 207,840 L53,840 L53,840 C51.3431458,840 50,838.656854 50,837 L50,830 Z" id="Rectangle-Copy-46" fill="#A9C8ED"></path>
            <path d="M50,530 L210,530 L210,537 L210,537 C210,538.656854 208.656854,540 207,540 L53,540 L53,540 C51.3431458,540 50,538.656854 50,537 L50,530 Z" id="Rectangle-Copy-27" fill="#A9C8ED"></path>
            <path d="M50,930 L210,930 L210,937 L210,937 C210,938.656854 208.656854,940 207,940 L53,940 L53,940 C51.3431458,940 50,938.656854 50,937 L50,930 Z" id="Rectangle-Copy-47" fill="#EDB6A9"></path>
            <path d="M250,530 L410,530 L410,537 L410,537 C410,538.656854 408.656854,540 407,540 L253,540 L253,540 C251.343146,540 250,538.656854 250,537 L250,530 Z" id="Rectangle-Copy-38" fill="#EDB6A9"></path>
            <path d="M50,1030 L210,1030 L210,1037 L210,1037 C210,1038.65685 208.656854,1040 207,1040 L53,1040 L53,1040 C51.3431458,1040 50,1038.65685 50,1037 L50,1030 Z" id="Rectangle-Copy-48" fill="#A9C8ED"></path>
            <path d="M250,630 L410,630 L410,637 L410,637 C410,638.656854 408.656854,640 407,640 L253,640 L253,640 C251.343146,640 250,638.656854 250,637 L250,630 Z" id="Rectangle-Copy-39" fill="#EDB6A9"></path>
            <path d="M50,1130 L210,1130 L210,1137 L210,1137 C210,1138.65685 208.656854,1140 207,1140 L53,1140 L53,1140 C51.3431458,1140 50,1138.65685 50,1137 L50,1130 Z" id="Rectangle-Copy-49" fill="#A9C8ED"></path>
            <path d="M249,830 L409,830 L409,837 L409,837 C409,838.656854 407.656854,840 406,840 L252,840 L252,840 C250.343146,840 249,838.656854 249,837 L249,830 Z" id="Rectangle-Copy-41" fill="#EFDBAB"></path>
            <path d="M50.0146484,330 C116.671549,330 170.004883,330 210.014648,330" id="Line" stroke="#FFFFFF"></path>
            <path d="M50.0292969,146 C116.686198,146 170.019531,146 210.029297,146" id="Line-Copy-3" stroke="#FFFFFF"></path>
            <path d="M250.029297,146 C316.686198,146 370.019531,146 410.029297,146" id="Line-Copy-4" stroke="#FFFFFF"></path>
            <path d="M50.0146484,430 C116.671549,430 170.004883,430 210.014648,430" id="Line-Copy" stroke="#FFFFFF"></path>
            <path d="M50.0146484,830 C116.671549,830 170.004883,830 210.014648,830" id="Line-Copy-10" stroke="#FFFFFF"></path>
            <path d="M50.0146484,530 C116.671549,530 170.004883,530 210.014648,530" id="Line-Copy-2" stroke="#FFFFFF"></path>
            <path d="M50.0146484,929 C116.671549,929 170.004883,929 210.014648,929" id="Line-Copy-11" stroke="#FFFFFF"></path>
            <path d="M250.014648,529 C316.671549,529 370.004883,529 410.014648,529" id="Line-Copy-7" stroke="#FFFFFF"></path>
            <path d="M50.0146484,1030 C116.671549,1030 170.004883,1030 210.014648,1030" id="Line-Copy-12" stroke="#FFFFFF"></path>
            <path d="M250.014648,629 C316.671549,629 370.004883,629 410.014648,629" id="Line-Copy-8" stroke="#FFFFFF"></path>
            <path d="M50.0146484,1129 C116.671549,1129 170.004883,1129 210.014648,1129" id="Line-Copy-13" stroke="#FFFFFF"></path>
            <text id="Requirements-Gatheri" font-family="ArialMT, Arial" font-size="12" font-weight="normal" fill="#4A4A4A">
                <tspan x="64.6328125" y="309.052734">Requirements Gathering</tspan>
            </text>
            <text id="Development-Planning" font-family="ArialMT, Arial" font-size="12" font-weight="normal" fill="#4A4A4A">
                <tspan x="69.6425781" y="125.052734">Development Planning</tspan>
            </text>
            <text id="Maintenance-Planning" font-family="ArialMT, Arial" font-size="12" font-weight="normal" fill="#4A4A4A">
                <tspan x="270.638672" y="126.052734">Maintenance Planning</tspan>
            </text>
            <text id="Architectural-Design" font-family="ArialMT, Arial" font-size="12" font-weight="normal" fill="#4A4A4A">
                <tspan x="76.3105469" y="409.052734">Architectural Design</tspan>
            </text>
            <text id="Unit-Implementation" font-family="ArialMT, Arial" font-size="12" font-weight="normal" fill="#4A4A4A">
                <tspan x="76.6416016" y="802.552734">Unit Implementation</tspan>
                <tspan x="99.4199219" y="816.552734">and Testing</tspan>
            </text>
            <text id="Detailed-Design" font-family="ArialMT, Arial" font-size="12" font-weight="normal" fill="#4A4A4A">
                <tspan x="87.6425781" y="509.052734">Detailed Design</tspan>
            </text>
            <text id="Integration" font-family="ArialMT, Arial" font-size="12" font-weight="normal" fill="#4A4A4A">
                <tspan x="101.646484" y="908.052734">Integration</tspan>
            </text>
            <text id="Prepare-Problem-Repo" font-family="ArialMT, Arial" font-size="12" font-weight="normal" fill="#4A4A4A">
                <tspan x="261.969727" y="510.052734">Prepare Problem Reports</tspan>
            </text>
            <text id="Division-of-Labor" font-family="ArialMT, Arial" font-size="12" font-weight="normal" fill="#4A4A4A">
                <tspan x="85.3105469" y="609.052734">Division of Labor</tspan>
            </text>
            <text id="Integration-and-Syst" font-family="ArialMT, Arial" font-size="12" font-weight="normal" fill="#4A4A4A">
                <tspan x="89.96875" y="1002.05273">Integration and</tspan>
                <tspan x="89.4267578" y="1016.05273">System Testing</tspan>
            </text>
            <text id="Problem-Investigatio" font-family="ArialMT, Arial" font-size="12" font-weight="normal" fill="#4A4A4A">
                <tspan x="272.302734" y="610.052734">Problem Investigation</tspan>
            </text>
            <text id="Release-Planning" font-family="ArialMT, Arial" font-size="12" font-weight="normal" fill="#4A4A4A">
                <tspan x="82.9667969" y="709.052734">Release Planning</tspan>
            </text>
            <text id="Release" font-family="ArialMT, Arial" font-size="12" font-weight="normal" fill="#4A4A4A">
                <tspan x="107.986328" y="1109.05273">Release</tspan>
            </text>
            <text id="Communicate-to-Users" font-family="ArialMT, Arial" font-size="12" font-weight="normal" fill="#4A4A4A">
                <tspan x="286.31543" y="806.552734">Communicate to</tspan>
                <tspan x="271.97168" y="820.552734">Users and Regulators</tspan>
            </text>
            <path d="M90,240 L90,280" id="Line-Copy-15" stroke="#4A4A4A" stroke-linecap="square"></path>
            <path id="Line-Copy-15-decoration-1" d="M90,280 L93,269.2 L87,269.2 L90,280 Z" stroke="#4A4A4A" stroke-linecap="square"></path>
            <path d="M90,340 L90,380" id="Line-Copy-16" stroke="#4A4A4A" stroke-linecap="square"></path>
            <path id="Line-Copy-16-decoration-1" d="M90,380 L93,369.2 L87,369.2 L90,380 Z" stroke="#4A4A4A" stroke-linecap="square"></path>
            <path d="M90,740 L90,780" id="Line-Copy-25" stroke="#4A4A4A" stroke-linecap="square"></path>
            <path id="Line-Copy-25-decoration-1" d="M90,780 L93,769.2 L87,769.2 L90,780 Z" stroke="#4A4A4A" stroke-linecap="square"></path>
            <path d="M90.0146484,157 L90.0146484,197" id="Line-Copy-18" stroke="#4A4A4A" stroke-linecap="square"></path>
            <path id="Line-Copy-18-decoration-1" d="M90.0146484,197 L93.0146484,186.2 L87.0146484,186.2 L90.0146484,197 Z" stroke="#4A4A4A" stroke-linecap="square"></path>
            <path d="M290,157 L290,197" id="Line-Copy-19" stroke="#4A4A4A" stroke-linecap="square"></path>
            <path id="Line-Copy-19-decoration-1" d="M290,197 L293,186.2 L287,186.2 L290,197 Z" stroke="#4A4A4A" stroke-linecap="square"></path>
            <path d="M90,440 L90,480" id="Line-Copy-17" stroke="#4A4A4A" stroke-linecap="square"></path>
            <path id="Line-Copy-17-decoration-1" d="M90,480 L93,469.2 L87,469.2 L90,480 Z" stroke="#4A4A4A" stroke-linecap="square"></path>
            <path d="M90,840 L90,880" id="Line-Copy-26" stroke="#4A4A4A" stroke-linecap="square"></path>
            <path id="Line-Copy-26-decoration-1" d="M90,880 L93,869.2 L87,869.2 L90,880 Z" stroke="#4A4A4A" stroke-linecap="square"></path>
            <path d="M290,440 L290,480" id="Line-Copy-22" stroke="#4A4A4A" stroke-linecap="square"></path>
            <path id="Line-Copy-22-decoration-1" d="M290,480 L293,469.2 L287,469.2 L290,480 Z" stroke="#4A4A4A" stroke-linecap="square"></path>
            <path d="M90,540 L90,580" id="Line-Copy-20" stroke="#4A4A4A" stroke-linecap="square"></path>
            <path id="Line-Copy-20-decoration-1" d="M90,580 L93,569.2 L87,569.2 L90,580 Z" stroke="#4A4A4A" stroke-linecap="square"></path>
            <path d="M90,940 L90,980" id="Line-Copy-27" stroke="#4A4A4A" stroke-linecap="square"></path>
            <path id="Line-Copy-27-decoration-1" d="M90,980 L93,969.2 L87,969.2 L90,980 Z" stroke="#4A4A4A" stroke-linecap="square"></path>
            <path d="M290,540 L290,580" id="Line-Copy-23" stroke="#4A4A4A" stroke-linecap="square"></path>
            <path id="Line-Copy-23-decoration-1" d="M290,580 L293,569.2 L287,569.2 L290,580 Z" stroke="#4A4A4A" stroke-linecap="square"></path>
            <path d="M90,640 L90,680" id="Line-Copy-21" stroke="#4A4A4A" stroke-linecap="square"></path>
            <path id="Line-Copy-21-decoration-1" d="M90,680 L93,669.2 L87,669.2 L90,680 Z" stroke="#4A4A4A" stroke-linecap="square"></path>
            <path d="M90,1040 L90,1080" id="Line-Copy-28" stroke="#4A4A4A" stroke-linecap="square"></path>
            <path id="Line-Copy-28-decoration-1" d="M90,1080 L93,1069.2 L87,1069.2 L90,1080 Z" stroke="#4A4A4A" stroke-linecap="square"></path>
            <path d="M90,1140 L90,1180" id="Line-Copy-29" stroke="#4A4A4A" stroke-linecap="square"></path>
            <path id="Line-Copy-29-decoration-1" d="M90,1180 L93,1169.2 L87,1169.2 L90,1180 Z" stroke="#4A4A4A" stroke-linecap="square"></path>
            <polyline id="Line-Copy-28" stroke="#4A4A4A" stroke-linecap="square" points="211.933974 1009 443.347656 1009 443.347656 507 412.489356 507"></polyline>
            <path id="Line-Copy-28-decoration-1" d="M412.489356,507 L423.289356,510 L423.289356,504 L412.489356,507 Z" stroke="#4A4A4A" stroke-linecap="square"></path>
            <polyline id="Line-Copy-24" stroke="#4A4A4A" stroke-linecap="square" points="323 640 323 710 211.018539 710"></polyline>
            <path id="Line-Copy-24-decoration-1" d="M211.018539,710 L221.818539,713 L221.818539,707 L211.018539,710 Z" stroke="#4A4A4A" stroke-linecap="square"></path>
            <path d="M366,641.828125 L366,779.304687" id="Line-Copy-24" stroke="#4A4A4A" stroke-linecap="square" transform="translate(366.000000, 710.566406) scale(-1, 1) translate(-366.000000, -710.566406) "></path>
            <path id="Line-Copy-24-decoration-1" d="M366,779.304687 L369,768.504687 L363,768.504687 L366,779.304687 Z" stroke="#4A4A4A" stroke-linecap="square"></path>
            <text id="System-Requirements" font-family="ArialMT, Arial" font-size="10" font-weight="normal" fill="#4A4A4A">
                <tspan x="97.4296875" y="255.016602">System Requirements</tspan>
                <tspan x="97.4296875" y="266.016602">and Risk Controls</tspan>
            </text>
            <text id="Software-Requirement" font-family="ArialMT, Arial" font-size="10" font-weight="normal" fill="#4A4A4A">
                <tspan x="96.7734375" y="361.647461">Software Requirements</tspan>
            </text>
            <text id="Approved-Change-Requ" font-family="ArialMT, Arial" font-size="10" font-weight="normal" fill="#4A4A4A">
                <tspan x="96.7734375" y="757.647461">Approved</tspan>
                <tspan x="96.7734375" y="768.647461">Change Requests</tspan>
            </text>
            <text id="Development-Plan" font-family="ArialMT, Arial" font-size="10" font-weight="normal" fill="#4A4A4A">
                <tspan x="96.7880859" y="176.647461">Development Plan</tspan>
            </text>
            <text id="Maintenance-Plan" font-family="ArialMT, Arial" font-size="10" font-weight="normal" fill="#4A4A4A">
                <tspan x="296.788086" y="177.647461">Maintenance Plan</tspan>
            </text>
            <text id="Design-Files" font-family="ArialMT, Arial" font-size="10" font-weight="normal" fill="#4A4A4A">
                <tspan x="96.7734375" y="461.647461">Design Files</tspan>
            </text>
            <text id="Design-Files" font-family="ArialMT, Arial" font-size="10" font-weight="normal" fill="#4A4A4A">
                <tspan x="96.7734375" y="863.647461">Design Files</tspan>
            </text>
            <text id="User-Feedback" font-family="ArialMT, Arial" font-size="10" font-weight="normal" fill="#4A4A4A">
                <tspan x="296.773438" y="461.647461">User Feedback</tspan>
            </text>
            <text id="Internal-Feedback" font-family="ArialMT, Arial" font-size="10" font-weight="normal" fill="#4A4A4A">
                <tspan x="224.226562" y="1000.53418">Internal Feedback</tspan>
            </text>
            <text id="Detailed-Design-File" font-family="ArialMT, Arial" font-size="10" font-weight="normal" fill="#4A4A4A">
                <tspan x="96.7734375" y="563.647461">Detailed Design Files</tspan>
            </text>
            <text id="Integrated-Changes" font-family="ArialMT, Arial" font-size="10" font-weight="normal" fill="#4A4A4A">
                <tspan x="96.7734375" y="962.647461">Integrated Changes</tspan>
            </text>
            <text id="Bare-Problem-Report" font-family="ArialMT, Arial" font-size="10" font-weight="normal" fill="#4A4A4A">
                <tspan x="296.773438" y="563.647461">Bare Problem Report</tspan>
            </text>
            <text id="Feature-Change-Reque" font-family="ArialMT, Arial" font-size="10" font-weight="normal" fill="#4A4A4A">
                <tspan x="96.7734375" y="657.647461">Feature</tspan>
                <tspan x="96.7734375" y="668.647461">Change Requests</tspan>
            </text>
            <text id="Test-Records" font-family="ArialMT, Arial" font-size="10" font-weight="normal" fill="#4A4A4A">
                <tspan x="96.7734375" y="1059.64746">Test Records</tspan>
            </text>
            <text id="Software-Release-and" font-family="ArialMT, Arial" font-size="10" font-weight="normal" fill="#4A4A4A">
                <tspan x="99.0185387" y="1159">Software Release and</tspan>
                <tspan x="99.0185387" y="1170">Regulatory Documents</tspan>
            </text>
            <text id="Problem-Fix-Change-R" font-family="ArialMT, Arial" font-size="10" font-weight="normal" fill="#4A4A4A">
                <tspan x="259.655273" y="657.647461">Problem Fix</tspan>
                <tspan x="232.946289" y="668.647461">Change Requests</tspan>
            </text>
            <rect id="Rectangle" fill="#F3F3F3" x="599.455078" y="972.285156" width="244.544922" height="231.714844"></rect>
            <rect id="Rectangle-Copy-50" fill="#EDB6A9" x="618.787598" y="990" width="80" height="60" rx="3"></rect>
            <rect id="Rectangle-Copy-52" fill="#EDB6A9" x="618.406738" y="1139" width="20" height="20" rx="3"></rect>
            <rect id="Rectangle-Copy-53" fill="#EDDAA9" x="618.406738" y="1169" width="20" height="20" rx="3"></rect>
            <rect id="Rectangle-Copy-54" fill="#A9C8ED" x="618.406738" y="1109" width="20" height="20" rx="3"></rect>
            <path d="M618.787598,1040 L698.787598,1040 L698.787598,1047 L698.787598,1047 C698.787598,1048.65685 697.444452,1050 695.787598,1050 L621.787598,1050 L621.787598,1050 C620.130743,1050 618.787598,1048.65685 618.787598,1047 L618.787598,1040 Z" id="Rectangle-Copy-51" fill="#EDB6A9"></path>
            <path d="M618.794922,1039 C652.123372,1039 678.790039,1039 698.794922,1039" id="Line-Copy-14" stroke="#FFFFFF"></path>
            <text id="Activity" font-family="Arial-ItalicMT, Arial" font-size="10" font-style="italic" font-weight="normal" fill="#4A4A4A">
                <tspan x="642.952637" y="1018.05273">Activity</tspan>
            </text>
            <text id="Role-Responsible-for" font-family="Arial-ItalicMT, Arial" font-size="10" font-style="italic" font-weight="normal" fill="#4A4A4A">
                <tspan x="728.787598" y="1047.59277">Role Responsible for </tspan>
                <tspan x="728.787598" y="1058.59277">Verifying Outputs</tspan>
            </text>
            <text id="Role-Responsible-for" font-family="Arial-ItalicMT, Arial" font-size="10" font-style="italic" font-weight="normal" fill="#4A4A4A">
                <tspan x="728.787598" y="1012">Role Responsible for </tspan>
                <tspan x="728.787598" y="1023">performing Activity</tspan>
            </text>
            <path d="M691.5,1008.5 L721.516662,1008.5" id="Line-2" stroke="#979797" stroke-linecap="square" stroke-dasharray="1,2"></path>
            <path d="M691.5,1045 L721.516662,1045" id="Line-2-Copy" stroke="#979797" stroke-linecap="square" stroke-dasharray="1,2"></path>
            <text id="Software-Developer" font-family="Arial-ItalicMT, Arial" font-size="10" font-style="italic" font-weight="normal" fill="#4A4A4A">
                <tspan x="648.787598" y="1151">Software Developer</tspan>
            </text>
            <text id="Other-Team-Members" font-family="Arial-ItalicMT, Arial" font-size="10" font-style="italic" font-weight="normal" fill="#4A4A4A">
                <tspan x="648.787598" y="1181">Other Team Members</tspan>
            </text>
            <text id="Software-Lead" font-family="Arial-ItalicMT, Arial" font-size="10" font-style="italic" font-weight="normal" fill="#4A4A4A">
                <tspan x="648.787598" y="1121">Software Lead</tspan>
            </text>
            <path d="M630.959961,1050 L630.959961,1090" id="Line-Copy-30" stroke="#4A4A4A"></path>
            <path id="Line-Copy-30-decoration-1" d="M630.959961,1090 L633.959961,1079.2 L627.959961,1079.2 L630.959961,1090 Z" stroke="#4A4A4A"></path>
            <text id="Activity-Output" font-family="Arial-ItalicMT, Arial" font-size="10" font-style="italic" font-weight="normal" fill="#4A4A4A">
                <tspan x="638.287598" y="1065.64746">Activity</tspan>
                <tspan x="638.287598" y="1076.64746">Output</tspan>
            </text>
            <text id="Legend" font-family="Arial-BoldMT, Arial" font-size="10" font-weight="bold" fill="#4A4A4A">
                <tspan x="703.949219" y="961.647461">Legend</tspan>
            </text>
            <text id="Software-Lifecycle-P" font-family="Arial-BoldMT, Arial" font-size="14" font-weight="bold" fill="#4A4A4A">
                <tspan x="333.559082" y="38">Software Lifecycle Processes</tspan>
            </text>
        </g>
    </g>
</svg>