<svg width="830" height="1079" xmlns="http://www.w3.org/2000/svg">
  <g fill="none" fill-rule="evenodd">
    <rect fill="#A9C8ED" x="15.5" y="172.738" width="160" height="60" rx="3"/>
    <rect fill="#A9C8ED" x="15.515" y="11.738" width="160" height="60" rx="3"/>
    <rect fill="#A9C8ED" x="215.515" y="11.738" width="160" height="60" rx="3"/>
    <rect fill="#EDB6A9" x="15.5" y="272.738" width="160" height="60" rx="3"/>
    <rect fill="#EDB6A9" x="15.5" y="672.738" width="160" height="60" rx="3"/>
    <rect fill="#EDB6A9" x="15.5" y="372.738" width="160" height="60" rx="3"/>
    <rect fill="#EDB6A9" x="15.5" y="772.738" width="160" height="60" rx="3"/>
    <rect fill="#EDB6A9" x="215.5" y="372.738" width="160" height="60" rx="3"/>
    <rect fill="#EDB6A9" x="15.5" y="472.738" width="160" height="60" rx="3"/>
    <rect fill="#EDB6A9" x="15.5" y="872.738" width="160" height="60" rx="3"/>
    <rect fill="#EDB6A9" x="215.5" y="472.738" width="160" height="60" rx="3"/>
    <rect fill="#A9C8ED" x="15.5" y="572.738" width="160" height="60" rx="3"/>
    <rect fill="#EDB6A9" x="15.5" y="972.738" width="160" height="60" rx="3"/>
    <rect fill="#EDDAA9" x="214.5" y="672.738" width="160" height="60" rx="3"/>
    <path d="M15.5 222.738h160v7a3 3 0 0 1-3 3h-154a3 3 0 0 1-3-3v-7zm.015-161h160v7a3 3 0 0 1-3 3h-154a3 3 0 0 1-3-3v-7zm200 0h160v7a3 3 0 0 1-3 3h-154a3 3 0 0 1-3-3v-7zm-200.015 261h160v7a3 3 0 0 1-3 3h-154a3 3 0 0 1-3-3v-7zm0 400h160v7a3 3 0 0 1-3 3h-154a3 3 0 0 1-3-3v-7zm0-300h160v7a3 3 0 0 1-3 3h-154a3 3 0 0 1-3-3v-7z" fill="#A9C8ED"/>
    <path d="M15.5 822.738h160v7a3 3 0 0 1-3 3h-154a3 3 0 0 1-3-3v-7zm200-400h160v7a3 3 0 0 1-3 3h-154a3 3 0 0 1-3-3v-7z" fill="#EDB6A9"/>
    <path d="M15.5 922.738h160v7a3 3 0 0 1-3 3h-154a3 3 0 0 1-3-3v-7z" fill="#A9C8ED"/>
    <path d="M215.5 522.738h160v7a3 3 0 0 1-3 3h-154a3 3 0 0 1-3-3v-7z" fill="#EDB6A9"/>
    <path d="M15.5 1022.738h160v7a3 3 0 0 1-3 3h-154a3 3 0 0 1-3-3v-7z" fill="#A9C8ED"/>
    <path d="M214.5 722.738h160v7a3 3 0 0 1-3 3h-154a3 3 0 0 1-3-3v-7z" fill="#EFDBAB"/>
    <path d="M15.515 222.738h160m-159.985-162h160m40 0h160m-360.015 262h160m-160 400h160m-160-300h160m-160 399h160m40-400h160m-360 501h160m40-401h160m-360 500h160" stroke="#FFF"/>
    <text font-family="ArialMT, Arial" font-size="12" fill="#4A4A4A">
      <tspan x="30.133" y="201.791">Requirements Gathering</tspan>
    </text>
    <text font-family="ArialMT, Arial" font-size="12" fill="#4A4A4A">
      <tspan x="35.143" y="39.791">Development Planning</tspan>
    </text>
    <text font-family="ArialMT, Arial" font-size="12" fill="#4A4A4A">
      <tspan x="236.139" y="40.791">Maintenance Planning</tspan>
    </text>
    <text font-family="ArialMT, Arial" font-size="12" fill="#4A4A4A">
      <tspan x="41.811" y="301.791">Architectural Design</tspan>
    </text>
    <text font-family="ArialMT, Arial" font-size="12" fill="#4A4A4A">
      <tspan x="42.142" y="695.291">Unit Implementation</tspan> <tspan x="64.92" y="709.291">and Testing</tspan>
    </text>
    <text font-family="ArialMT, Arial" font-size="12" fill="#4A4A4A">
      <tspan x="53.143" y="401.791">Detailed Design</tspan>
    </text>
    <text font-family="ArialMT, Arial" font-size="12" fill="#4A4A4A">
      <tspan x="67.146" y="800.791">Integration</tspan>
    </text>
    <text font-family="ArialMT, Arial" font-size="12" fill="#4A4A4A">
      <tspan x="227.47" y="402.791">Prepare Problem Reports</tspan>
    </text>
    <text font-family="ArialMT, Arial" font-size="12" fill="#4A4A4A">
      <tspan x="50.811" y="501.791">Division of Labor</tspan>
    </text>
    <text font-family="ArialMT, Arial" font-size="12" fill="#4A4A4A">
      <tspan x="55.469" y="894.791">Integration and</tspan> <tspan x="54.927" y="908.791">System Testing</tspan>
    </text>
    <text font-family="ArialMT, Arial" font-size="12" fill="#4A4A4A">
      <tspan x="237.803" y="502.791">Problem Investigation</tspan>
    </text>
    <text font-family="ArialMT, Arial" font-size="12" fill="#4A4A4A">
      <tspan x="48.467" y="601.791">Release Planning</tspan>
    </text>
    <text font-family="ArialMT, Arial" font-size="12" fill="#4A4A4A">
      <tspan x="73.486" y="1001.791">Release</tspan>
    </text>
    <text font-family="ArialMT, Arial" font-size="12" fill="#4A4A4A">
      <tspan x="251.815" y="699.291">Communicate to</tspan> <tspan x="237.472" y="713.291">Users and Regulators</tspan>
    </text>
    <path d="M55.5 132.738v40m0 0l3-10.8h-6l3 10.8zm0 60v40m0 0l3-10.8h-6l3 10.8zm0 360v40m0 0l3-10.8h-6l3 10.8zm.015-601v40m0 0l3-10.8h-6l3 10.8zm199.985-40v40m0 0l3-10.8h-6l3 10.8zm-200 221v40m0 0l3-10.8h-6l3 10.8zm0 360v40m0 0l3-10.8h-6l3 10.8zm200-440v40m0 0l3-10.8h-6l3 10.8zm-200 60v40m0 0l3-10.8h-6l3 10.8zm0 360v40m0 0l3-10.8h-6l3 10.8zm200-440v40m0 0l3-10.8h-6l3 10.8zm-200 60v40m0 0l3-10.8h-6l3 10.8zm0 360v40m0 0l3-10.8h-6l3 10.8zm0 60v40m0 0l3-10.8h-6l3 10.8zm121.934-171h231.414v-502h-30.859" stroke="#4A4A4A" stroke-linecap="square"/>
    <path d="M377.99 399.738l10.8 3v-6l-10.8 3zm-89.49 133v70H176.519" stroke="#4A4A4A" stroke-linecap="square"/>
    <path d="M176.519 602.738l10.8 3v-6l-10.8 3zM331.5 534.566v137.477m0 0l3-10.8h-6l3 10.8z" stroke="#4A4A4A" stroke-linecap="square"/>
    <text font-family="ArialMT, Arial" font-size="10" fill="#4A4A4A">
      <tspan x="62.93" y="147.755">System Requirements</tspan> <tspan x="62.93" y="158.755">and Risk Controls</tspan>
    </text>
    <text font-family="ArialMT, Arial" font-size="10" fill="#4A4A4A">
      <tspan x="62.273" y="254.386">Software Requirements</tspan>
    </text>
    <text font-family="ArialMT, Arial" font-size="10" fill="#4A4A4A">
      <tspan x="62.273" y="650.386">Approved</tspan> <tspan x="62.273" y="661.386">Change Requests</tspan>
    </text>
    <text font-family="ArialMT, Arial" font-size="10" fill="#4A4A4A">
      <tspan x="62.288" y="91.386">Development Plan</tspan>
    </text>
    <text font-family="ArialMT, Arial" font-size="10" fill="#4A4A4A">
      <tspan x="262.288" y="92.386">Maintenance Plan</tspan>
    </text>
    <text font-family="ArialMT, Arial" font-size="10" fill="#4A4A4A">
      <tspan x="62.273" y="354.386">Design Files</tspan>
    </text>
    <text font-family="ArialMT, Arial" font-size="10" fill="#4A4A4A">
      <tspan x="62.273" y="756.386">Design Files</tspan>
    </text>
    <text font-family="ArialMT, Arial" font-size="10" fill="#4A4A4A">
      <tspan x="262.273" y="354.386">User Feedback</tspan>
    </text>
    <text font-family="ArialMT, Arial" font-size="10" fill="#4A4A4A">
      <tspan x="189.727" y="893.272">Internal Feedback</tspan>
    </text>
    <text font-family="ArialMT, Arial" font-size="10" fill="#4A4A4A">
      <tspan x="62.273" y="456.386">Detailed Design Files</tspan>
    </text>
    <text font-family="ArialMT, Arial" font-size="10" fill="#4A4A4A">
      <tspan x="62.273" y="855.386">Integrated Changes</tspan>
    </text>
    <text font-family="ArialMT, Arial" font-size="10" fill="#4A4A4A">
      <tspan x="262.273" y="456.386">Bare Problem Report</tspan>
    </text>
    <text font-family="ArialMT, Arial" font-size="10" fill="#4A4A4A">
      <tspan x="62.273" y="550.386">Feature</tspan> <tspan x="62.273" y="561.386">Change Requests</tspan>
    </text>
    <text font-family="ArialMT, Arial" font-size="10" fill="#4A4A4A">
      <tspan x="62.273" y="952.386">Test Records</tspan>
    </text>
    <text font-family="ArialMT, Arial" font-size="10" fill="#4A4A4A">
      <tspan x="64.519" y="1051.738">Software Release and</tspan> <tspan x="64.519" y="1062.738">Regulatory Documents</tspan>
    </text>
    <text font-family="ArialMT, Arial" font-size="10" fill="#4A4A4A">
      <tspan x="225.155" y="550.386">Problem Fix</tspan> <tspan x="198.446" y="561.386">Change Requests</tspan>
    </text>
    <g transform="translate(564.5 19.162)">
      <path fill="#F3F3F3" d="M.455 20.285H245V252H.455z"/>
      <rect fill="#EDB6A9" x="19.788" y="38" width="80" height="60" rx="3"/>
      <rect fill="#EDB6A9" x="19.407" y="187" width="20" height="20" rx="3"/>
      <rect fill="#EDDAA9" x="19.407" y="217" width="20" height="20" rx="3"/>
      <rect fill="#A9C8ED" x="19.407" y="157" width="20" height="20" rx="3"/>
      <path d="M19.788 88h80v7a3 3 0 0 1-3 3h-74a3 3 0 0 1-3-3v-7z" fill="#EDB6A9"/>
      <path d="M19.795 87h80" stroke="#FFF"/>
      <text font-family="Arial-ItalicMT, Arial" font-size="10" font-style="italic" fill="#4A4A4A">
        <tspan x="43.953" y="66.053">Activity</tspan>
      </text>
      <text font-family="Arial-ItalicMT, Arial" font-size="10" font-style="italic" fill="#4A4A4A">
        <tspan x="129.788" y="95.593">Role Responsible for </tspan> <tspan x="129.788" y="106.593">Verifying Outputs</tspan>
      </text>
      <text font-family="Arial-ItalicMT, Arial" font-size="10" font-style="italic" fill="#4A4A4A">
        <tspan x="129.788" y="60">Role Responsible for </tspan> <tspan x="129.788" y="71">performing Activity</tspan>
      </text>
      <path d="M92.5 56.5h30.017M92.5 93h30.017" stroke="#979797" stroke-linecap="square" stroke-dasharray="1,2"/>
      <text font-family="Arial-ItalicMT, Arial" font-size="10" font-style="italic" fill="#4A4A4A">
        <tspan x="49.788" y="199">Software Developer</tspan>
      </text>
      <text font-family="Arial-ItalicMT, Arial" font-size="10" font-style="italic" fill="#4A4A4A">
        <tspan x="49.788" y="229">Other Team Members</tspan>
      </text>
      <text font-family="Arial-ItalicMT, Arial" font-size="10" font-style="italic" fill="#4A4A4A">
        <tspan x="49.788" y="169">Software Lead</tspan>
      </text>
      <path d="M31.96 98v40m0 0l3-10.8h-6l3 10.8z" stroke="#4A4A4A"/>
      <text font-family="Arial-ItalicMT, Arial" font-size="10" font-style="italic" fill="#4A4A4A">
        <tspan x="39.288" y="113.647">Activity</tspan> <tspan x="39.288" y="124.647">Output</tspan>
      </text>
      <text font-family="Arial-BoldMT, Arial" font-size="10" font-weight="bold" fill="#4A4A4A">
        <tspan x="104.949" y="9.647">Legend</tspan>
      </text>
    </g>
  </g>
</svg>
